<svg version="1.2" xmlns="http://www.w3.org/2000/svg" viewBox="0 0 1919 1967" width="1919" height="1967">
	<title>thumbnail_Robotic Logo</title>
	<style>
		.s0 { fill: #ffffff } 
		.s1 { fill: #000000 } 
	</style>
	<g id="Background">
		<path id="Path 0" class="s0" d="m1228.4 414c0.6 0.1 3.3 2.1 6.1 4.5 3.1 2.8 4.6 4.8 3.9 5.2-0.6 0.5-67.3 73.5-148.4 162.3-81 88.8-148.2 162.4-149.2 163.5-1.9 2-1.5 3.8 22.2 113.5 13.2 61.3 24 112.2 24 113 0.1 0.8-43.7 42.3-97.2 92.1-53.5 49.8-99.6 92.9-102.3 95.7-2.8 2.7-9.4 9.1-14.8 14.1-5.3 5-10 8.9-10.5 8.7-0.4-0.2-2.6-2.7-9.2-10.6l12.9-11.8c7.1-6.4 56.3-52 109.4-101.2 64.1-59.4 96.6-90.2 96.6-91.5 0.1-1.1-10.7-52-47.9-224l2.9-3c1.5-1.6 69.3-75.8 150.5-164.8 81.2-88.9 148.1-162.6 148.8-163.7 0.7-1.1 1.7-2 2.2-2zm54 27.3c0.6 0.2 1.5 1.1 2.1 1.9 0.8 1.2 0.4 2.2-1.7 3.9-1.4 1.3-69 75.2-150.2 164.2-81.2 88.9-147.8 162.3-148.1 163-0.3 0.6 10.3 51.4 23.5 112.7 13.2 61.3 23.9 112 23.8 112.6-0.2 0.6-43.3 41.1-95.8 90-52.5 48.8-102.5 95.4-111 103.6-14.8 14.2-15.6 14.8-17.3 13.1-1-1-1.8-2-1.8-2.3 0-0.3 5.8-5.7 12.8-12 7-6.3 55.1-50.8 106.8-98.9 51.7-48 95.7-89 101.7-94.6l-24.2-112c-13.3-61.6-24-112.5-23.9-113.2 0.2-0.6 67.7-74.8 149.9-164.8 82.2-90.1 150.1-164.6 150.9-165.7 0.7-1 1.9-1.7 2.5-1.5zm-459.5 755.7c0.3 0 1.2 0.5 1.9 1.2 0.7 0.7 1.2 1.8 1.2 2.3 0 0.5-22.3 21.9-49.6 47.5-27.2 25.6-147.3 138.7-266.7 251.4-119.5 112.6-219.6 207.1-227.9 215.1l-1.3 62c-0.8 34.1-1.4 62.1-1.4 62.3-0.1 0.1-31.9 22.3-70.9 49.3-38.9 27-80.2 55.7-91.7 63.9-19.7 13.8-21.1 14.7-22.8 13.1-1-0.9-1.8-1.9-1.7-2.3 0-0.5 8.1-6.3 18-13 10-6.8 51-35.1 164.5-113.5l0.8-39.9c0.4-21.9 1-49.9 2.2-84.2l219.5-207.1c120.7-114 221.5-209.3 224-211.9 2.5-2.6 26.3-25.3 52.9-50.4 26.6-25.2 48.7-45.8 49-45.8z"/>
		<path id="Path 1" fill-rule="evenodd" class="s1" d="m1172.4 0.5l22.1 83.5 3.5 0.6c1.9 0.3 11.4 2.1 21 4 9.6 1.8 24.9 5.2 34 7.4 9.1 2.3 22.6 5.9 30 8 7.4 2.2 22 6.8 32.5 10.4 10.4 3.5 22.6 7.8 35 12.6l5.5-5.3c3-2.9 17.3-16.9 58-56.7l66.7 39.1c36.8 21.5 74.6 43.7 84.1 49.2 9.5 5.6 17.1 10.6 16.9 11.2-0.2 0.6-5.7 20.1-12.1 43.5-9.6 34.7-11.5 42.7-10.4 43.6 0.7 0.6 6.9 6 13.8 12 6.9 5.9 22.4 20.7 34.5 32.8 12.2 12.2 27.5 28.4 34.2 36.1 6.6 7.7 13.2 15.4 17.1 20l50.3-11.2c27.7-6.1 50.7-10.9 51-10.5 0.4 0.4 19.7 36.7 42.9 80.7 23.2 44 43.5 82.4 48 90.5l-34.5 31.7c-19 17.5-34.6 32.3-34.5 32.8 0 0.5 2.3 7.5 5.1 15.5 2.8 8 7.5 22.8 10.5 33 3 10.2 7.1 24.8 9 32.5 2 7.7 5.6 24.1 8 36.5 2.5 12.4 4.8 22.8 5.2 23.2 0.4 0.3 22.5 7.1 49.1 15 26.6 7.8 48.7 14.5 49.1 14.8 0.5 0.3 0 43.7-1.1 96.5-1.1 52.8-2.1 96.5-2.3 97-0.2 0.5-21.8 6.2-95.6 24l-0.6 3.5c-0.3 1.9-2.3 12.3-4.5 23-2.1 10.7-5.9 27.4-8.3 37-2.5 9.6-7.4 27-11.1 38.5-3.6 11.5-6.8 21.7-7.1 22.5-0.3 1 14.2 17.3 40.7 46 36.2 39.1 41 44.7 40.1 46.5-0.5 1.1-23.3 38-50.7 82-27.3 44-50 80.3-50.3 80.6-0.4 0.4-23.9-6.5-52.2-15.2-28.3-8.7-51.6-15.7-51.6-15.6-0.1 0.1-3.6 4.5-7.9 9.7-4.3 5.2-11.2 13.3-15.4 18-4.2 4.7-13.2 14.5-20.1 21.9-6.9 7.3-18.6 19-26 26-7.5 6.9-15.9 14.6-23.7 21.6l14.3 52.5c7.9 28.9 14.4 53.2 14.4 54 0 0.9-30.9 19.8-81.1 49.5-44.6 26.4-82.2 48.6-83.5 49.3-2.3 1.2-3.9-0.2-39.9-35.8-20.6-20.3-38.1-37-38.8-37-0.6 0-6.2 2-12.2 4.4-6.1 2.3-20.7 7.5-32.5 11.4-11.8 3.9-29.6 9.3-39.5 12.1-9.9 2.7-26.3 6.7-36.5 8.9-10.2 2.2-22.9 4.7-38 7.2l-1.1 4.3c-0.6 2.3-6.8 24-26.4 92.2h-11.5c-6.3 0-49.9-0.5-96.8-1-54.6-0.6-85.7-1.4-86.1-2-0.5-0.5-5.8-21.4-23.1-91.5h-143l-325.5 171.7-31 67.1-138.5 130.2-7.8-0.5c-4.2-0.3-43.9-2.6-88.2-5.1-44.3-2.5-80.6-4.6-80.8-4.7-0.1-0.1 31.7-22.4 70.8-49.4 39-27.1 71-49.4 71.1-49.5 0-0.2 0.6-28.2 2.7-124.3l5.4-5.1c2.9-2.9 103.1-97.5 222.5-210.3 119.5-112.8 217.6-205.1 218-205.1 0.5 0 3.7 2.1 7.3 4.7 3.6 2.6 13.5 9.3 22 14.9 8.5 5.6 21.1 13.4 28 17.4 6.9 4 22.4 12.1 34.5 18 12.1 5.9 27.8 13.1 35 16 7.1 2.9 19.3 7.5 27 10.2 7.7 2.7 21 7 29.5 9.4 8.5 2.5 22.2 6.1 30.5 8 8.2 1.9 22.6 4.8 32 6.4 9.3 1.6 22.8 3.5 30 4.4 7.1 0.8 19.3 2 27 2.6 7.7 0.6 26.6 1.1 42 1.1 15.4 0 34.3-0.5 42-1.1 7.7-0.6 19.6-1.7 26.5-2.6 6.9-0.8 16.8-2.1 22-2.9 5.2-0.9 15.3-2.7 22.5-4.1 7.1-1.4 20.2-4.4 29-6.6 8.8-2.2 22.5-6 30.5-8.5 8-2.4 21.7-7.2 30.5-10.5 8.8-3.4 22.5-9 30.5-12.5 8-3.5 21.9-10.3 31-15 9.1-4.7 23.2-12.6 31.5-17.5 8.2-5 20.6-12.9 27.5-17.6 6.9-4.7 17.7-12.4 24-17.2 6.3-4.8 17.6-13.8 25-20 7.4-6.2 23.4-21.3 35.6-33.4 12.1-12.2 26.9-27.9 32.8-35.1 6-7.2 15.2-18.8 20.6-26 5.3-7.2 13.7-19.1 18.7-26.5 4.9-7.4 11.9-18.5 15.5-24.5 3.6-6 9.8-17.1 13.8-24.5 3.9-7.4 9.8-19.1 13-26 3.2-6.9 7.2-15.9 9-20 1.7-4.1 5.6-13.8 8.5-21.5 2.9-7.7 7.2-19.8 9.5-27 2.3-7.1 6.3-21.5 9-32 2.7-10.5 6.3-26.4 8-35.5 1.7-9.1 3.9-23 5-31 1-8 2.5-20.8 3.2-28.5 0.8-8.4 1.3-27.7 1.3-48.5 0-20.8-0.5-40.1-1.3-48.5-0.7-7.7-2.2-20.7-3.3-29-1.1-8.2-3.1-21.1-4.5-28.5-1.3-7.4-4.7-22.7-7.5-34-2.8-11.3-8.3-30.4-12.4-42.5-4-12.1-10.3-29.2-14-38-3.6-8.8-10.8-24.5-16-35-5.1-10.5-13-25.3-17.5-33-4.5-7.7-12.8-21-18.5-29.5-5.6-8.5-14.6-21.3-20-28.5-5.4-7.1-13.9-17.9-19-24-5.1-6-15.3-17.5-22.7-25.5-7.5-8-19.8-20.2-27.4-27.2-7.7-6.9-19.1-16.9-25.4-22.1-6.3-5.2-16.5-13.1-22.5-17.7-6.1-4.5-18-12.9-26.5-18.5-8.5-5.6-22.7-14.4-31.5-19.4-8.8-5.1-23.2-12.7-32-17.1-8.8-4.3-23.2-10.8-32-14.5-8.8-3.7-22.8-9-31-12-8.3-2.9-22.4-7.4-31.5-10-9.1-2.6-23.3-6.2-31.5-8.1-8.3-1.8-21.5-4.5-29.5-5.8-8-1.3-20.1-3.1-27-4-6.9-0.9-17.9-2-24.5-2.6-6.6-0.5-21.5-1.2-33-1.6-12.5-0.4-29.7-0.2-42.5 0.5-11.8 0.7-28.9 2.1-38 3.1-9.1 1-22.1 2.8-29 4-6.9 1.2-19.7 3.6-28.5 5.5-8.8 1.9-23.9 5.7-33.5 8.4-9.6 2.7-22.7 6.8-29 9-6.3 2.1-16.7 5.9-23 8.4-6.3 2.4-18.3 7.5-26.5 11.1-8.3 3.7-21.5 10.2-29.5 14.3-8 4.2-20.6 11.2-28 15.6-7.4 4.4-19.4 11.9-26.5 16.7-7.2 4.8-18.4 12.7-25 17.7-6.6 4.9-17.4 13.4-24 18.9-6.6 5.5-18.1 15.6-25.5 22.5-7.4 6.9-18.5 17.9-24.5 24.5-6.1 6.5-14 15.3-17.6 19.4-3.6 4.1-10.8 12.9-16.1 19.5-5.2 6.6-13.3 17.4-18 24-4.7 6.6-11.7 17-15.5 23-3.9 6-10.8 17.5-15.4 25.5-4.5 8-12.6 23.5-18 34.5-5.3 11-12.4 26.8-15.7 35-3.3 8.3-8.5 22.4-11.6 31.5-3 9.1-7.3 23.3-9.6 31.5-2.2 8.3-5.6 22.2-7.5 31-1.8 8.8-4.5 23.4-5.9 32.5-1.4 9.1-3.3 23.3-4.1 31.5-0.9 8.3-1.9 29-2.2 46-0.4 19.7-0.1 37.2 0.6 48 0.7 9.4 1.8 22.9 2.7 30 0.8 7.2 2.6 20 4 28.5 1.4 8.5 3.9 21.6 5.5 29 1.6 7.4 4.8 20.3 7 28.5 2.3 8.3 6.5 22.2 9.5 31 2.9 8.8 7.8 22.1 10.8 29.5 3 7.4 5.8 13.6 6.3 13.8 0.4 0.1 28.2-15.1 61.8-33.9 33.5-18.7 61.1-34.1 61.2-34.2 0.2-0.1-1.8-6-4.3-13.2-2.5-7.1-6.3-19.3-8.5-27-2.2-7.7-5.3-20.3-6.9-28-1.6-7.7-3.8-20.3-4.9-28-1.1-7.7-2.5-19.8-3.1-27-0.6-7.1-1.1-23.3-1.1-36 0-12.6 0.5-28.8 1.1-36 0.6-7.1 2-19.1 3.1-26.5 1.1-7.4 2.9-18 4-23.5 1.1-5.5 3.4-15.4 5-22 1.7-6.6 5.1-18.3 7.6-26 2.5-7.7 6.9-20.1 9.8-27.5 2.9-7.4 8-19.1 11.2-26 3.3-6.9 9.2-18.3 13.2-25.5 4.1-7.1 11-18.6 15.5-25.5 4.5-6.9 12.3-17.9 17.3-24.5 5-6.6 13.3-17 18.5-23 5.3-6 17.1-18.4 26.4-27.5 9.3-9.1 22.5-21 29.4-26.5 6.9-5.6 17.2-13.4 23-17.5 5.8-4.1 16.6-11.2 24-15.8 7.4-4.6 22.3-12.7 33-18.1 10.7-5.3 25.3-12 32.5-14.8 7.1-2.8 19.3-7.2 27-9.7 7.7-2.6 21.2-6.4 30-8.6 8.8-2.2 22.5-5.1 30.5-6.5 8-1.4 21-3.3 29-4.2 10.8-1.3 22.7-1.7 46.5-1.7 24.4 0 35.5 0.4 46.5 1.7 8 1 21 2.9 29 4.3 8 1.3 21 4.1 29 6 8 2 21.5 5.8 45.5 13.5l-5.1 5.2c-2.8 2.9-69.2 75.4-147.4 161.2-78.3 85.8-143.6 157.4-148 162l24 111c13.2 61.1 24 111.9 23.9 113 0 1.3-32.5 32.1-96.4 91.5-53 49.2-96.7 89.6-97.2 89.8-0.4 0.2-7.3-6.4-15.3-14.5-8-8.1-18.8-20-24.1-26.3-5.2-6.3-12.3-15.1-15.6-19.5-3.3-4.4-9.1-12.7-13-18.5-3.8-5.8-10-15.7-13.8-22-3.7-6.3-10.5-18.9-23.2-44.5l-42.9 62.4c-23.6 34.3-43.7 63.7-46.4 68.1l9.6 14.3c5.3 7.8 13.3 19.2 17.9 25.2 4.6 6.1 13 16.6 18.8 23.5 5.7 6.9 15.9 18.3 22.6 25.5 6.7 7.2 17.7 18.1 24.4 24.4 6.7 6.2 17.4 15.7 23.7 21 6.3 5.3 14.1 11.6 23 18.6l-3.8 3.6c-2 2.1-102.5 96.9-442.7 418.1l-0.7 22.2c-0.5 12.1-1.1 40.1-2.3 101.9l-145 100.6-6 0.1c-4.5 0-6.4-0.4-7.6-1.7-0.9-1-27.4-38-116.1-162.8l27.7-123c15.2-67.7 28-123.3 28.3-123.7 0.4-0.4 14.1-3.6 30.5-7 20.4-4.3 30.1-6.8 30.7-7.8 0.4-0.8 40.5-93 177-408v-157l-3.3-0.8c-1.7-0.5-17-4.7-64.7-17.7v-194.5l4.7-1.3c2.7-0.8 25.1-6.7 95.1-25.2l2.7-14c1.4-7.7 3.9-20.1 5.6-27.5 1.6-7.4 5-21.1 7.5-30.5 2.5-9.3 8.4-28.7 13.2-43 4.8-14.3 8.7-26.3 8.7-26.6 0-0.4-15.5-14.8-34.5-31.9-19-17.2-34.6-31.4-34.8-31.6-0.1-0.2 19.4-39.2 43.4-86.6 24-47.5 43.9-86.5 44.1-86.8 0.2-0.3 24.2 4.6 106.3 22l2.7-3.2c1.6-1.8 7.5-8.7 13.2-15.3 5.7-6.6 21.3-22.8 34.5-36.1 13.3-13.2 30.8-29.8 39.1-36.8 9.1-7.8 14.9-13.5 14.8-14.5-0.1-0.9-5-22.1-10.8-47.1-5.8-25-10.8-46.1-11-46.7-0.3-0.9 29.8-17.7 84.5-47.3 46.7-25.3 85.3-46 85.7-46 0.5-0.1 14.5 14.4 31.3 32.1 16.8 17.7 30.7 32.6 31 33.2 0.3 0.5 7.7-1.6 16.5-4.7 8.8-3.1 23.2-7.8 32-10.5 8.8-2.7 25-7.2 36-9.9 11-2.8 26.7-6.4 35-8 8.2-1.7 18.8-3.7 23.4-4.4 6.7-1 8.6-1.7 9.3-3.3 0.4-1.1 5.6-19.3 11.3-40.5 5.8-21.2 10.7-39.1 11-39.8 0.4-1 20.4-1.2 194.9-0.7zm64.9 423.8l8.1 3.4c4.4 1.9 13.9 6.2 20.9 9.6 7 3.4 12.6 6.5 12.5 6.9-0.2 0.3-67.6 74.3-149.8 164.3-82.2 90-149.7 164.2-149.9 164.8-0.1 0.7 10.6 51.6 48.1 225.2l-4.4 4.1c-2.3 2.3-46.4 43.2-97.8 90.9-51.4 47.7-95.5 88.8-102.5 95.6l-12.5-9.5c-6.9-5.2-14.5-11.3-17-13.5-4-3.5-4.3-4.1-2.9-5.3 1-0.7 45.6-42.3 99.3-92.3 53.7-50 97.7-91.7 97.6-92.5 0-0.8-10.8-51.6-48-224l4.2-5c2.4-2.8 69.5-76.5 149.2-163.9zm46 21.9l3.6 1.8c2 1 7.9 4.4 13.1 7.5 5.2 3.2 12.9 8 17 10.8 4.1 2.7 13.4 9.4 20.5 14.7 7.2 5.4 17.3 13.4 22.5 18 5.2 4.6 14.6 13.3 20.9 19.4 6.2 6.1 16.1 16.5 22 23.2 5.8 6.6 14.7 17.4 19.7 24 5 6.5 13 17.8 17.7 24.9 4.7 7.2 11.3 18 14.8 24 3.5 6.1 9.8 18.2 14 27 4.2 8.8 9.7 21.2 12.2 27.5 2.5 6.3 6.6 17.8 9.2 25.5 2.5 7.7 6.3 21 8.4 29.5 2.2 8.5 5.1 22 6.5 30 1.4 8 3.3 20.6 4.2 28 0.9 7.4 1.8 25 2.1 39 0.4 15.5 0.1 31.5-0.6 41-0.6 8.5-2.1 21.8-3.1 29.5-1.1 7.7-3.3 20.5-5 28.5-1.6 8-4.7 20.8-6.9 28.5-2.2 7.7-5.8 19.4-8.1 26-2.3 6.6-6.2 17-8.7 23-2.5 6.1-7.3 16.9-10.7 24-3.5 7.2-9.8 19.1-14.1 26.5-4.2 7.4-12.2 20-17.5 28-5.4 8-14.5 20.4-20.2 27.5-5.7 7.2-15.3 18.4-21.4 24.9-6 6.6-16.5 17.1-23.4 23.4-6.9 6.3-17.7 15.6-24 20.7-6.3 5-16.7 12.8-23 17.3-6.3 4.4-17.6 11.7-25 16.2-7.4 4.5-20 11.4-28 15.5-8 4-20.3 9.8-27.5 12.8-7.1 3-19.1 7.5-26.5 10.1-7.4 2.6-20 6.5-28 8.7-8 2.2-21.1 5.3-29.2 6.9-8.1 1.7-21.6 3.9-30 5-8.4 1-24.1 2.4-34.8 3-10.7 0.6-26.2 0.9-34.5 0.5-8.2-0.3-21.7-1.3-30-2.1-8.2-0.8-22-2.6-30.5-4-8.5-1.4-22.7-4.4-31.5-6.6-8.8-2.1-22.3-6-30-8.5-7.7-2.5-19.8-6.8-27-9.7-7.1-2.8-21.1-9-31-13.9-9.9-4.9-22.3-11.4-27.5-14.4-5.2-3.1-13.4-8.3-18.2-11.5-5.9-3.9-8.5-6.2-8-7 0.4-0.7 46.2-43.5 101.7-95.1 55.6-51.7 101.4-94.4 101.9-95 0.5-0.7-8.7-45.8-47.5-226.2l2.3-2.7c1.3-1.5 68.6-75.4 149.7-164.2z"/>
		<path id="Path 2" fill-rule="evenodd" class="s0" d="m1070 159.2c15.1-0.1 34.3 0.3 42.5 0.8 8.3 0.5 20 1.5 26 2.1 6 0.6 19.1 2.2 29 3.5 9.9 1.4 25.7 4 35 5.9 9.3 1.8 23.5 5 31.5 7 8 2 21.5 5.7 30 8.1 8.5 2.5 22.5 7.1 31 10.1 8.5 3 22.3 8.2 30.5 11.5 8.3 3.4 22.7 9.7 32 14 9.3 4.4 23.8 11.6 32 16 8.3 4.5 20.6 11.5 27.5 15.6 6.9 4.2 19.7 12.4 28.5 18.2 8.8 5.9 21.4 14.7 28 19.7 6.6 4.9 17.4 13.4 24 18.8 6.6 5.4 17.6 14.9 24.5 21.1 6.9 6.1 20.6 19.5 30.5 29.5 9.9 10.1 22.1 23.1 27.1 28.9 5 5.8 12.6 15 17.1 20.5 4.4 5.5 12.2 15.6 17.3 22.5 5 6.9 13.8 19.5 19.5 28 5.6 8.5 14.2 22.3 19 30.5 4.8 8.3 12.7 22.6 17.6 32 4.8 9.4 11.8 23.8 15.4 32 3.7 8.3 9 20.6 11.7 27.5 2.8 6.9 8.3 22.4 12.4 34.5 4 12.1 9.1 28.8 11.4 37 2.2 8.3 5.6 22 7.5 30.5 1.9 8.5 4.8 23.4 6.4 33 1.7 9.6 3.9 25.6 5 35.5 1.1 9.9 2.6 25.6 3.2 35 0.7 10.6 0.9 30.8 0.6 53.5-0.3 22.1-1.2 42.6-2.1 52-0.9 8.5-2.5 22-3.6 30-1.2 8-3.2 20.6-4.6 28-1.3 7.4-4 20.5-5.9 29-1.9 8.5-5.9 24-8.9 34.5-3 10.5-7.8 25.8-10.6 34-2.9 8.3-8.4 22.9-12.3 32.5-3.8 9.6-10.1 24.3-13.9 32.5-3.9 8.3-8.5 17.9-10.4 21.5-1.8 3.6-3.8 7.8-4.4 9.5-0.7 1.7-4.9 9.5-9.4 17.5-4.6 8-12.5 21.2-17.7 29.3-5.2 8.1-13.7 20.8-18.9 28.1-5.2 7.3-13.3 18.1-18 24.2-4.6 6-13.9 17.2-20.5 24.9-6.6 7.7-18.5 20.7-26.5 28.9-8 8.2-19.9 19.9-26.5 26-6.6 6.1-17.9 16-25 22-7.2 5.9-19.3 15.5-27 21.3-7.7 5.8-22.3 16.1-32.5 22.8-10.2 6.8-24.8 16-32.5 20.4-7.7 4.5-23.2 12.9-34.5 18.5-11.3 5.7-26.1 12.8-33 15.9-6.9 3-19 8-27 11.2-8 3.1-23 8.6-33.5 12-10.5 3.5-27.5 8.7-38 11.5-10.5 2.8-28.9 7-41 9.5-12.1 2.4-28.5 5.3-36.5 6.4-8 1.1-21 2.7-29 3.6-8 0.8-25.3 2-38.5 2.6-18.4 0.9-30.5 0.9-51.5 0-15.1-0.6-34-1.8-42-2.6-8-0.9-19.5-2.2-25.5-3.1-6-0.8-17.5-2.6-25.5-4-8-1.4-21.5-4.1-30-6-8.5-1.9-22.9-5.5-32-8.1-9.1-2.5-23.9-7-33-10-9.1-3-24.8-8.8-35-12.8-10.2-4-24.4-10-31.5-13.3-7.1-3.3-18.5-8.7-25.3-12.1-7.7-3.9-12.7-7-13.7-8.6-1.3-2.2-1.3-2.8 0-5 0.8-1.4 2.4-2.5 3.5-2.5 1.1 0 8.9 3.4 17.2 7.6 8.4 4.2 21.6 10.5 29.3 13.9 7.7 3.4 21.6 9.1 31 12.7 9.4 3.6 23.5 8.7 31.5 11.3 8 2.6 22.4 6.9 32 9.5 9.6 2.6 25.4 6.4 35 8.4 9.6 2 24.2 4.8 32.5 6.1 8.2 1.4 23.1 3.4 33 4.5 9.9 1.1 27.5 2.5 39 3.1 12.6 0.7 31.3 0.9 46.5 0.5 14-0.3 33.4-1.3 43-2.1 9.6-0.9 25.6-2.7 35.5-4.1 9.9-1.4 25.9-4.1 35.5-6 9.6-1.9 25.4-5.4 35-7.9 9.6-2.4 24-6.4 32-8.9 8-2.4 20.1-6.5 27-8.9 6.9-2.5 18.1-6.7 25-9.5 6.9-2.8 17-7 22.5-9.5 5.5-2.4 17-7.9 25.5-12.2 8.5-4.3 22-11.5 30-16 8-4.5 19.7-11.5 26-15.5 6.3-4 16.5-10.6 22.5-14.8 6-4.1 16.8-11.9 24-17.3 7.2-5.4 18-13.9 24-18.9 6-5 16.8-14.5 24-21 7.2-6.5 19.1-18 26.5-25.6 7.4-7.7 18.1-19.1 23.6-25.4 5.6-6.3 15-17.6 21-25.1 6-7.5 15.7-20.3 21.5-28.5 5.9-8.2 15.6-22.8 21.7-32.4 6-9.6 15.4-25.6 20.8-35.5 5.4-9.9 13.5-25.9 18-35.5 4.4-9.6 10.5-23.3 13.4-30.5 2.9-7.2 7.5-19.1 10.1-26.5 2.7-7.4 6.9-20 9.4-28 2.4-8 6.2-21.5 8.4-30 2.2-8.5 5.8-24.5 8-35.5 2.2-11 5.1-28.3 6.5-38.5 1.4-10.2 3.2-26.8 4-37 0.8-10.2 1.8-27.5 2.1-38.5 0.4-11.3 0.2-30.2-0.4-43.5-0.6-12.9-1.8-30-2.6-38-0.8-8-2.7-22.4-4.1-32-1.4-9.6-3.9-24.2-5.5-32.5-1.7-8.2-5-22.9-7.4-32.5-2.5-9.6-6.7-24.8-9.5-33.7-2.7-9-8-24.3-11.6-34-3.6-9.8-10-25.4-14.1-34.8-4.1-9.4-11-24-15.4-32.5-4.3-8.5-11.9-22.7-16.9-31.5-5.1-8.8-14.4-23.9-20.7-33.5-6.4-9.6-15.4-22.7-20.1-29-4.7-6.3-12.1-16-16.5-21.5-4.5-5.5-12.1-14.7-17.1-20.5-5-5.8-16.9-18.6-26.6-28.4-9.6-9.8-23.8-23.5-31.5-30.4-7.7-6.9-20.5-17.7-28.5-24.1-8-6.4-19.9-15.5-26.5-20.2-6.6-4.8-17.8-12.5-25-17.1-7.2-4.7-19.5-12.3-27.5-17-8-4.7-21.5-12.1-30-16.6-8.5-4.4-22.5-11.2-31-15-8.5-3.9-21.3-9.4-28.5-12.2-7.2-2.9-21.5-8.1-32-11.6-10.5-3.6-26.2-8.5-35-10.9-8.8-2.4-23-5.9-31.5-7.8-8.5-1.9-22-4.7-30-6.1-8-1.4-21.5-3.5-30-4.5-8.5-1.1-21.3-2.6-28.5-3.3-8.6-0.9-28.1-1.3-58-1.3-35.5 0.1-48.5 0.4-61.5 1.8-9.1 1-24.4 2.9-34 4.3-9.6 1.4-25.4 4.1-35 6-9.6 2-23.6 5.1-31 7-7.4 1.9-20.5 5.5-29 8.1-8.5 2.5-22.7 7.2-31.5 10.4-8.8 3.2-23.2 8.7-32 12.4-8.8 3.6-25.5 11.3-37 17-11.5 5.6-28.2 14.4-37 19.5-8.8 5.1-24.3 14.7-34.5 21.4-10.2 6.8-24.9 17.1-32.8 22.9-7.8 5.9-20.8 16.3-29 23.1-8.1 6.8-21.1 18.4-28.8 25.8-7.8 7.3-18.9 18.3-24.6 24.3-5.7 6.1-14.1 15.2-18.6 20.3-4.5 5-13.5 15.8-20 24-6.5 8.1-16.2 21-21.7 28.7-5.5 7.7-13.9 20.2-18.7 27.8-4.9 7.5-12.6 20.3-17.2 28.5-4.6 8.1-12.4 22.8-17.4 32.7-4.9 9.9-11.7 24.3-15 32-3.4 7.7-8.3 19.9-11 27-2.7 7.1-7.7 21.3-11 31.5-3.3 10.2-8.1 26.4-10.6 36-2.5 9.6-6.3 26.5-8.5 37.5-2.2 11-4.9 26.3-6 34-1.1 7.7-2.7 20.8-3.6 29-0.8 8.3-1.9 23.1-2.5 33-0.5 9.9-1 22.2-1 27.3 0 7-0.4 9.6-1.6 10.7-0.8 0.8-2.6 1.5-4 1.5-1.4 0-3.1-1-3.9-2.2-1.4-2-1.4-5.3-0.5-27.8 0.6-14 1.7-32.2 2.6-40.5 0.8-8.2 2.6-22.9 4-32.5 1.4-9.6 4.1-25.4 6-35 1.9-9.6 5.5-25.1 7.9-34.5 2.4-9.4 6.7-24.4 9.5-33.5 2.9-9.1 8.1-24.4 11.7-34 3.6-9.6 9.5-24.2 13-32.5 3.6-8.2 11.2-24.2 16.9-35.5 5.7-11.3 14-26.8 18.5-34.5 4.5-7.7 12.7-21 18.3-29.5 5.6-8.5 14.3-21.1 19.3-28 5-6.9 13-17.4 17.8-23.5 4.9-6.1 12.7-15.5 17.4-20.9 4.7-5.5 14.1-15.8 20.9-23 6.8-7.2 18.7-19.1 26.5-26.5 7.8-7.3 21.2-19.2 29.7-26.3 8.5-7.2 21.8-17.7 29.5-23.5 7.7-5.8 21.6-15.6 31-21.8 9.4-6.2 23.7-15.2 32-20 8.2-4.9 24-13.4 35-19 11-5.6 25-12.3 31-14.9 6-2.7 16-6.8 22-9.3 6-2.4 17.9-6.9 26.2-9.9 8.4-3 22.2-7.4 30.5-9.9 8.4-2.6 22.5-6.4 31.3-8.6 8.8-2.2 23.6-5.6 33-7.4 9.4-1.8 23.3-4.3 31-5.4 7.7-1.1 20.7-2.7 29-3.6 8.2-0.9 20.6-1.9 27.5-2.4 6.9-0.4 24.9-0.9 40-0.9zm218.4 325.8c2.3 0 5.9 0.6 8.1 1.2 2.3 0.7 5.8 3.1 8.2 5.5 3 3 4.8 5.9 5.8 9.5 1.2 4.2 1.3 6.3 0.5 10.3-0.6 2.7-2.2 6.7-3.5 8.7-1.4 2.1-4.4 4.9-6.8 6.3-2.3 1.3-6.2 2.7-8.7 3.1q-4.5 0.7-9.5-0.9c-3.4-1.1-6.3-3-9.1-5.9-2.2-2.4-4.6-6.1-5.4-8.3-0.7-2.2-1.1-6.3-0.9-9.1 0.3-3.7 1.3-6.2 3.9-9.9 2-2.9 5.5-6.1 8.4-7.7 3.2-1.8 6.3-2.8 9-2.8zm-628.3 520.1c0.4-0.1 0.6 0.4 0.5 1 0 0.6-26.9 35.1-119.1 152.7l-77 48c-42.4 26.5-77.3 47.9-77.8 47.7-0.4-0.3 10.4-24.8 48.8-108.5l112-70.4c61.6-38.7 112.3-70.5 112.6-70.5zm128.9 72.1c3.4 0.2 6.6 1.1 8.2 2.3 1.5 1.1 3.7 3.8 4.8 6 1.1 2.2 2 5.1 2 6.5 0 1.4-1 4.5-2.2 7-1.4 2.7-3.7 5.2-5.8 6.4-1.9 1.1-5.3 2-7.5 2-2.2 0-5.5-0.9-7.4-2-1.9-1-4.3-3-5.3-4.4-1.1-1.4-2.2-4.7-2.4-7.5-0.4-3.7 0-5.9 1.4-8.5 1-1.9 3.4-4.6 5.3-5.8 2.8-2 4.4-2.3 8.9-2z"/>
		<path id="Path 3" class="s1" d="m1289 488c1.9 0 5.8 1.1 8.5 2.5 3.3 1.6 5.9 3.8 7.8 6.7 2.1 3.3 2.7 5.5 2.7 9.6 0 2.8-0.5 6.4-1.1 8-0.5 1.5-2.2 4-3.7 5.5-1.5 1.6-3.8 3.4-5.2 4.1-1.4 0.7-4.1 1.6-6 2-1.9 0.3-5.3 0.1-7.5-0.5-2.2-0.6-5.5-2.3-7.4-3.7-1.9-1.5-4.3-4.5-5.3-6.7-1-2.2-1.8-5.7-1.8-7.7 0-2.1 0.7-5.5 1.6-7.5 0.8-2.1 2.5-4.9 3.7-6.2 1.2-1.3 4-3.2 6.2-4.2 2.2-1 5.6-1.9 7.5-1.9zm-501.3 592c2.1 0 5.3 0.9 7.1 2 1.7 1.1 3.9 3.7 4.8 5.8 1.3 3 1.4 4.4 0.5 7.5-0.6 2-2.5 4.8-4.1 6.2-2.1 1.8-4.2 2.5-7 2.5-2.2 0-5.2-0.6-6.6-1.2-1.4-0.7-3.5-2.9-4.7-4.8-1.5-2.6-1.9-4.5-1.4-7.5 0.4-2.9 1.6-4.9 4.1-7.2 2.7-2.5 4.5-3.3 7.3-3.3z"/>
	</g>
</svg>